<svg width="30" height="22" viewBox="0 0 30 22" fill="none" xmlns="http://www.w3.org/2000/svg">
<path d="M11.8351 20.8932L11.8268 20.8897L11.8011 20.8757C11.6502 20.7931 11.5006 20.7083 11.3522 20.6214C9.56801 19.5661 7.90066 18.3265 6.37779 16.923C3.6808 14.4182 0.823242 10.7012 0.823242 6.12319C0.823242 2.70719 3.71128 -0.00180931 7.19708 -0.00180931C8.16611 -0.00653364 9.12375 0.206255 9.99876 0.62073C10.8738 1.03521 11.6437 1.6407 12.2511 2.39219C12.8588 1.64055 13.6288 1.03496 14.5041 0.620476C15.3793 0.205994 16.3372 -0.00670932 17.3064 -0.00180931C20.791 -0.00180931 23.6791 2.70719 23.6791 6.12319C23.6791 10.7024 20.8215 14.4194 18.1245 16.9219C16.6017 18.3253 14.9343 19.565 13.1501 20.6202C13.0018 20.7075 12.8521 20.7927 12.7012 20.8757L12.6754 20.8897L12.6672 20.8944L12.6637 20.8955C12.5366 20.9625 12.395 20.9976 12.2511 20.9976C12.1073 20.9976 11.9657 20.9625 11.8386 20.8955L11.8351 20.8932Z" fill="white"/>
<path d="M22.1905 18.9649L25.3954 12.7316H23.1851V8.69823L19.8698 14.9316H22.1905V18.9649ZM22.6326 21.1649C21.6134 21.1649 20.6556 20.9724 19.7593 20.5874C18.8629 20.2024 18.0832 19.6799 17.4201 19.0199C16.757 18.3599 16.2321 17.5838 15.8453 16.6916C15.4585 15.7993 15.2651 14.846 15.2651 13.8316C15.2651 12.8171 15.4585 11.8638 15.8453 10.9716C16.2321 10.0793 16.757 9.30323 17.4201 8.64323C18.0832 7.98323 18.8629 7.46073 19.7593 7.07573C20.6556 6.69073 21.6134 6.49823 22.6326 6.49823C23.6517 6.49823 24.6095 6.69073 25.5059 7.07573C26.4023 7.46073 27.182 7.98323 27.845 8.64323C28.5081 9.30323 29.033 10.0793 29.4198 10.9716C29.8066 11.8638 30 12.8171 30 13.8316C30 14.846 29.8066 15.7993 29.4198 16.6916C29.033 17.5838 28.5081 18.3599 27.845 19.0199C27.182 19.6799 26.4023 20.2024 25.5059 20.5874C24.6095 20.9724 23.6517 21.1649 22.6326 21.1649Z" fill="#894189"/>
<path d="M22.5656 18.4982L25.4791 12.8315H23.4698V9.16486L20.4558 14.8315H22.5656V18.4982ZM22.9674 20.4982C22.0409 20.4982 21.1702 20.3232 20.3554 19.9732C19.5405 19.6232 18.8316 19.1482 18.2288 18.5482C17.6261 17.9482 17.1488 17.2426 16.7972 16.4315C16.4456 15.6204 16.2698 14.7537 16.2698 13.8315C16.2698 12.9093 16.4456 12.0426 16.7972 11.2315C17.1488 10.4204 17.6261 9.71486 18.2288 9.11486C18.8316 8.51486 19.5405 8.03986 20.3554 7.68986C21.1702 7.33986 22.0409 7.16486 22.9674 7.16486C23.894 7.16486 24.7647 7.33986 25.5795 7.68986C26.3944 8.03986 27.1033 8.51486 27.7061 9.11486C28.3088 9.71486 28.7861 10.4204 29.1377 11.2315C29.4893 12.0426 29.6651 12.9093 29.6651 13.8315C29.6651 14.7537 29.4893 15.6204 29.1377 16.4315C28.7861 17.2426 28.3088 17.9482 27.7061 18.5482C27.1033 19.1482 26.3944 19.6232 25.5795 19.9732C24.7647 20.3232 23.894 20.4982 22.9674 20.4982Z" fill="white"/>
</svg>
